<svg width="128" height="128" viewBox="0 0 128 128" fill="none" xmlns="http://www.w3.org/2000/svg">
    <path
        d="M98.6897 42.8014H87.4151C86.7645 42.8007 86.1216 42.6613 85.5293 42.3924C84.9369 42.1234 84.4087 41.7312 83.98 41.2419L79.4069 36.0788C79.0689 35.7005 78.6549 35.398 78.1918 35.1908C77.7288 34.9836 77.2273 34.8765 76.72 34.8765C76.2127 34.8765 75.7112 34.9836 75.2482 35.1908C74.7852 35.398 74.3711 35.7005 74.0331 36.0788L70.1133 40.5043C69.4817 41.2244 68.704 41.8017 67.8319 42.1978C66.9598 42.5939 66.0133 42.7996 65.0555 42.8014H3.35076C1.57174 47.9002 0.445857 53.204 0 58.5858H58.2486C58.7533 58.5851 59.2525 58.4821 59.7162 58.2828C60.1799 58.0836 60.5983 57.7924 60.9461 57.4268L66.3832 51.7578C66.7197 51.4106 67.1225 51.1347 67.5678 50.9464C68.0132 50.7582 68.4918 50.6614 68.9753 50.662H69.186C69.6944 50.6643 70.1967 50.7723 70.661 50.9791C71.1254 51.1859 71.5417 51.487 71.8835 51.8632L76.4566 57.0263C76.8844 57.5167 77.4124 57.9097 78.0049 58.1787C78.5975 58.4477 79.2409 58.5865 79.8917 58.5858H127.414C126.978 53.2025 125.852 47.8975 124.063 42.8014H98.774H98.6897ZM35.2358 91.7774C35.7401 91.7743 36.2386 91.6702 36.7019 91.4711C37.1652 91.272 37.5839 90.982 37.9333 90.6184L43.3493 84.9494C43.6879 84.6051 44.0912 84.331 44.536 84.1429C44.9809 83.9549 45.4585 83.8566 45.9414 83.8536H46.1732C46.6815 83.8559 47.1838 83.9639 47.6482 84.1707C48.1126 84.3775 48.5289 84.6786 48.8707 85.0548L53.4227 90.218C53.8531 90.7052 54.3816 91.0959 54.9736 91.3647C55.5656 91.6334 56.2076 91.7741 56.8577 91.7774H121.281C123.736 86.7311 125.507 81.3805 126.55 75.8665H64.6973C64.0521 75.8642 63.4147 75.726 62.8264 75.461C62.2382 75.1959 61.7124 74.8099 61.2833 74.3281L56.7102 69.165C56.3728 68.7818 55.9579 68.4747 55.4928 68.2639C55.0278 68.0532 54.5233 67.9437 54.0128 67.9427C53.5049 67.9413 53.0027 68.0497 52.5407 68.2607C52.0787 68.4717 51.6678 68.7802 51.3363 69.165L47.4166 73.5905C46.779 74.3074 45.9967 74.8809 45.1212 75.2732C44.2458 75.6655 43.2971 75.8677 42.3377 75.8665H0.864043C1.89599 81.3939 3.66067 86.7589 6.11146 91.8196L35.2358 91.7774ZM80.9454 25.5417C81.4532 25.5415 81.9557 25.4387 82.4228 25.2395C82.89 25.0404 83.3121 24.7489 83.6639 24.3827L89.0799 18.7348C89.4139 18.3828 89.8158 18.1023 90.2614 17.9103C90.7069 17.7184 91.1869 17.6189 91.672 17.6179H91.9038C92.4117 17.6165 92.9139 17.725 93.3759 17.9359C93.8379 18.1469 94.2488 18.4554 94.5803 18.8402L99.1533 24.0033C99.5873 24.4847 100.117 24.8701 100.709 25.135C101.3 25.3999 101.94 25.5384 102.588 25.5417H114.832C108.876 17.6104 101.155 11.1738 92.2822 6.74076C83.4088 2.30776 73.6258 0 63.7068 0C53.7877 0 44.0048 2.30776 35.1314 6.74076C26.2581 11.1738 18.5378 17.6104 12.5812 25.5417H80.9454ZM56.3309 107.583H39.577C38.9296 107.582 38.2899 107.442 37.701 107.173C37.112 106.904 36.5876 106.512 36.163 106.023L31.611 100.86C31.2711 100.482 30.8552 100.179 30.3905 99.9713C29.9257 99.764 29.4225 99.6568 28.9136 99.6568C28.4047 99.6568 27.9015 99.764 27.4367 99.9713C26.9719 100.179 26.556 100.482 26.2161 100.86L22.2753 105.37C21.6446 106.091 20.867 106.669 19.9947 107.066C19.1224 107.462 18.1755 107.667 17.2175 107.667H16.9646C22.9455 114.083 30.1827 119.199 38.226 122.697C46.2692 126.195 54.9464 128 63.7173 128C72.4883 128 81.1654 126.195 89.2087 122.697C97.2519 119.199 104.489 114.083 110.47 107.667L56.3309 107.583Z"
        fill="white" />
</svg>