<svg width="499" height="500" viewBox="0 0 499 500" fill="none" xmlns="http://www.w3.org/2000/svg">
<path d="M124.761 361.095C126.582 361.778 128.403 362.461 130.224 363.144C135.461 365.193 140.925 367.014 146.389 368.38C154.584 370.657 162.78 372.478 171.204 373.844C172.57 373.844 173.936 374.299 175.074 374.299C180.538 374.982 185.774 375.438 191.238 375.893C206.492 376.804 221.745 375.893 236.771 373.389C243.146 372.25 249.52 370.884 255.667 369.291C266.367 366.331 276.84 362.689 287.085 357.908C292.776 355.176 298.696 352.444 304.16 349.029C315.087 342.882 325.332 335.369 335.349 326.945C325.105 352.444 309.396 374.755 289.589 392.74C272.742 407.994 250.203 415.734 227.437 413.458C206.492 411.181 185.774 404.806 166.195 393.878C154.129 387.276 143.429 379.308 133.867 370.201C130.68 367.242 127.72 364.055 124.761 360.867V361.095Z" fill="white"/>
<path d="M90.6104 197.851C90.838 199.672 91.0657 201.721 91.521 203.542C92.4317 209.234 93.57 214.698 94.936 220.162C96.985 228.358 99.4893 236.554 102.677 244.294C103.132 245.432 103.587 246.798 104.27 247.937C106.319 252.945 108.596 257.954 111.1 262.735C117.93 276.167 126.354 289.144 136.143 300.755C140.241 305.763 144.567 310.544 149.12 315.097C156.861 322.838 165.512 330.123 174.618 336.726C179.855 340.368 185.091 344.011 190.782 347.198C201.71 353.573 213.093 358.809 225.387 363.135C198.295 367.005 170.976 364.501 145.477 356.305C123.849 349.247 105.864 333.538 96.5296 312.821C88.1061 293.697 83.0975 272.297 82.8698 249.986C82.8698 236.326 84.2358 222.894 87.1954 210.145C88.1061 205.819 89.2444 201.721 90.6104 197.623V197.851Z" fill="white"/>
<path d="M215.142 86.7637C213.549 87.902 212.183 89.0403 210.589 90.4063C206.264 94.0489 201.938 97.6915 197.84 101.789C191.693 107.709 186.002 114.083 180.765 120.686C179.855 121.824 179.172 122.735 178.261 123.873C175.074 128.198 171.886 132.524 168.927 137.077C160.731 149.827 153.673 163.486 148.437 177.829C146.16 183.976 144.339 190.123 142.518 196.27C139.558 206.97 137.737 217.898 136.599 229.053C135.916 235.428 135.688 241.803 135.688 248.177C135.688 260.699 136.826 273.448 139.103 286.197C122.256 264.569 110.645 239.981 105.181 213.572C100.4 191.261 105.181 167.812 118.385 149.371C130.679 132.296 146.616 117.498 165.967 106.115C177.806 99.0575 190.099 93.8212 202.621 89.951C206.719 88.585 211.045 87.6743 215.142 86.7637Z" fill="white"/>
<path d="M373.596 138.895C371.774 138.212 369.953 137.529 368.132 136.846C362.895 134.797 357.431 132.976 351.968 131.61C343.772 129.333 335.576 127.512 327.152 126.146C325.786 126.146 324.42 125.691 323.282 125.691C317.818 125.008 312.582 124.552 307.118 124.097C291.864 123.186 276.611 124.097 261.585 126.601C255.21 127.74 248.836 129.106 242.689 130.699C231.989 133.659 221.516 137.301 211.271 142.082C205.58 144.814 199.661 147.546 194.197 150.961C183.269 157.108 173.024 164.621 163.007 173.045C173.252 147.546 188.96 125.235 208.767 107.25C225.614 91.9964 248.153 84.2558 270.919 86.5324C291.864 88.8091 312.582 95.1837 332.161 106.112C344.227 112.714 354.927 120.682 364.489 129.789C367.676 132.748 370.636 135.935 373.596 139.123V138.895Z" fill="white"/>
<path d="M407.746 302.134C407.519 300.313 407.291 298.264 406.836 296.443C405.925 290.751 404.787 285.287 403.421 279.823C401.372 271.627 398.868 263.431 395.68 255.691C395.225 254.552 394.77 253.186 394.087 252.048C392.038 247.04 389.761 242.031 387.257 237.25C380.427 223.818 372.003 210.841 362.214 199.23C358.116 194.222 353.79 189.441 349.237 184.887C341.496 177.147 332.845 169.862 323.739 163.259C318.502 159.617 313.266 155.974 307.574 152.787C296.647 146.412 285.263 141.176 272.97 136.85C300.062 132.98 327.381 135.484 352.879 143.68C374.508 150.738 392.493 166.447 401.827 187.164C410.251 206.288 415.259 227.688 415.487 249.999C415.487 263.659 414.121 277.091 411.161 289.84C410.251 294.166 409.112 298.264 407.746 302.362V302.134Z" fill="white"/>
<path d="M283.215 413.228C284.808 412.09 286.174 410.952 287.768 409.586C292.094 405.943 296.419 402.3 300.517 398.202C306.664 392.283 312.356 385.909 317.592 379.306C318.503 378.168 319.186 377.257 320.096 376.119C323.283 371.794 326.471 367.468 329.43 362.915C337.626 350.165 344.684 336.506 349.92 322.163C352.197 316.016 354.018 309.869 355.839 303.722C358.799 293.022 360.62 282.094 361.759 270.938C362.442 264.564 362.669 258.189 362.669 251.815C362.669 239.293 361.531 226.544 359.254 213.795C376.101 235.423 387.712 260.011 393.176 286.42C397.957 308.731 393.176 332.18 379.972 350.621C367.678 367.696 351.741 382.494 332.39 393.877C320.552 400.934 308.258 406.171 295.736 410.041C291.638 411.407 287.313 412.318 283.215 413.228Z" fill="white"/>
<path d="M86.0566 348.123C112.693 399.575 162.096 438.506 223.565 449.206C227.663 449.889 231.761 450.572 235.859 450.799C267.049 468.102 301.882 479.713 338.308 484.038C339.446 484.038 340.585 484.266 341.495 484.494C302.792 499.292 259.536 504.073 215.597 496.332C181.22 490.413 150.03 477.436 122.938 458.995C117.93 450.799 113.376 442.603 109.051 433.952C96.0738 406.633 88.3333 377.492 86.0566 348.123Z" fill="white"/>
<path d="M82.6408 157.785C51.4509 206.505 42.572 268.885 63.9724 327.395C65.3384 331.265 66.932 335.135 68.5257 338.778C68.981 374.521 76.4939 410.264 91.0644 444.186C91.5197 445.097 91.975 446.235 92.4304 447.146C60.3298 420.964 34.6038 385.904 19.1227 344.014C7.05649 311.23 2.73088 277.764 5.00752 245.208C9.56079 236.784 14.3417 228.589 19.8057 220.62C37.1081 195.577 58.2808 174.405 82.6408 157.785Z" fill="white"/>
<path d="M245.649 59.6697C187.823 56.9378 129.313 80.3872 89.4718 128.197C86.7399 131.384 84.2355 134.571 81.9589 137.986C51.2243 156.427 23.9047 180.787 2.04897 210.155C1.36598 211.066 0.682991 211.977 0 212.887C6.60225 171.908 24.1323 132.067 52.5903 97.9172C74.9013 71.2806 101.766 50.5632 131.134 36.2204C140.696 35.7651 150.258 36.2204 159.82 36.9034C190.099 39.4077 219.012 47.1482 245.649 59.8974V59.6697Z" fill="white"/>
<path d="M412.298 151.875C385.662 100.423 336.259 61.493 274.79 50.7928C270.692 50.1098 266.594 49.4268 262.496 49.1992C231.306 31.8967 196.473 20.2859 160.047 15.9603C158.909 15.9603 157.77 15.7326 156.86 15.5049C195.79 0.706789 238.819 -4.07415 282.758 3.66642C317.135 9.58567 348.325 22.5625 375.417 41.0033C380.426 49.1992 384.979 57.395 389.304 66.0463C402.281 93.3659 410.022 122.507 412.298 151.875Z" fill="white"/>
<path d="M415.714 342.195C446.904 293.474 455.783 231.095 434.383 172.585C433.017 168.715 431.423 164.845 429.829 161.202C429.374 125.459 421.861 89.7155 407.291 55.7936C406.835 54.883 406.38 53.7446 405.925 52.834C438.025 79.0153 463.751 114.076 479.232 155.966C491.299 188.749 495.624 222.216 493.348 254.772C488.794 263.195 484.013 271.391 478.549 279.359C461.247 304.402 440.074 325.575 415.714 342.195Z" fill="white"/>
<path d="M252.479 440.558C310.305 443.289 368.815 419.84 408.656 372.031C411.388 368.843 413.892 365.656 416.169 362.241C446.904 343.8 474.223 319.44 496.079 290.072C496.762 289.161 497.445 288.25 498.128 287.34C491.526 328.319 473.995 368.16 445.538 402.31C423.227 428.947 396.362 449.664 366.994 464.007C357.432 464.462 347.87 464.007 338.308 463.324C308.029 460.82 279.115 453.079 252.479 440.33V440.558Z" fill="white"/>
</svg>
